<svg version="1.1" id="&#x421;&#x43B;&#x43E;&#x439;_1"
	 xmlns="http://www.w3.org/2000/svg" xmlns:xlink="http://www.w3.org/1999/xlink" x="0px" y="0px" width="20px" height="20px"
	 viewBox="0 0 20 20" style="enable-background:new 0 0 20 20;" xml:space="preserve">
<path d="M7.512,19.512l8.222-8.344c0.312-0.333,0.467-0.723,0.467-1.168c0-0.453-0.156-0.838-0.467-1.155
	L7.512,0.488C7.192,0.163,6.809,0,6.363,0C5.908,0,5.529,0.163,5.226,0.488L4.279,1.45c-0.32,0.308-0.48,0.693-0.48,1.155
	c0,0.462,0.16,0.848,0.48,1.156L10.405,10l-6.125,6.239c-0.32,0.308-0.48,0.693-0.48,1.155c0,0.453,0.16,0.843,0.48,1.168
	l0.947,0.963C5.538,19.841,5.917,20,6.363,20C6.809,20,7.192,19.837,7.512,19.512z"/>
</svg>
