<svg version="1.1" id="&#x421;&#x43B;&#x43E;&#x439;_1"
	 xmlns="http://www.w3.org/2000/svg" xmlns:xlink="http://www.w3.org/1999/xlink" x="0px" y="0px" width="20px" height="20px"
	 viewBox="0 0 20 20" style="enable-background:new 0 0 20 20;" xml:space="preserve">
<path d="M12.488,19.512l-8.222-8.344C3.954,10.834,3.798,10.445,3.798,10c0-0.453,0.156-0.838,0.467-1.155
	l8.222-8.357C12.808,0.163,13.191,0,13.637,0c0.455,0,0.833,0.163,1.137,0.488l0.947,0.963c0.32,0.308,0.48,0.693,0.48,1.155
	c0,0.462-0.161,0.848-0.48,1.156L9.595,10l6.125,6.239c0.32,0.308,0.48,0.693,0.48,1.155c0,0.453-0.161,0.843-0.48,1.168
	l-0.947,0.963C14.462,19.841,14.083,20,13.637,20C13.191,20,12.808,19.837,12.488,19.512z"/>
</svg>
