<?xml version="1.0" encoding="iso-8859-1"?>
<!-- Generator: Adobe Illustrator 16.2.0, SVG Export Plug-In . SVG Version: 6.00 Build 0)  -->
<!DOCTYPE svg PUBLIC "-//W3C//DTD SVG 1.1//EN" "http://www.w3.org/Graphics/SVG/1.1/DTD/svg11.dtd">
<svg version="1.1" id="&#x421;&#x43B;&#x43E;&#x439;_1"
	 xmlns="http://www.w3.org/2000/svg" xmlns:xlink="http://www.w3.org/1999/xlink" x="0px" y="0px" width="20.033px"
	 height="48.002px" viewBox="0 0 20.033 48.002" style="enable-background:new 0 0 20.033 48.002;" xml:space="preserve">
<path d="M8.619,1.385v41.887l-6.233-6.177c-0.546-0.541-1.431-0.541-1.977,0c-0.546,0.542-0.546,1.418,0,1.959
	l8.619,8.542c0.546,0.541,1.431,0.541,1.976,0l8.619-8.542c0.273-0.271,0.409-0.625,0.409-0.979s-0.136-0.709-0.409-0.979
	c-0.546-0.541-1.431-0.541-1.977,0l-6.233,6.177V1.385C11.414,0.62,10.788,0,10.017,0C9.245,0,8.619,0.62,8.619,1.385z"/>
</svg>
