<?xml version="1.0" encoding="iso-8859-1"?>
<!-- Generator: Adobe Illustrator 16.2.0, SVG Export Plug-In . SVG Version: 6.00 Build 0)  -->
<!DOCTYPE svg PUBLIC "-//W3C//DTD SVG 1.1//EN" "http://www.w3.org/Graphics/SVG/1.1/DTD/svg11.dtd">
<svg version="1.1" id="&#x421;&#x43B;&#x43E;&#x439;_1"
	 xmlns="http://www.w3.org/2000/svg" xmlns:xlink="http://www.w3.org/1999/xlink" x="0px" y="0px" width="29.991px"
	 height="30.02px" viewBox="0 0 29.991 30.02" style="enable-background:new 0 0 29.991 30.02;" xml:space="preserve">
<path d="M17.648,15.01L29.441,3.204c0.733-0.733,0.733-1.922,0-2.655c-0.732-0.733-1.919-0.733-2.652,0
	L14.996,12.355L3.202,0.55c-0.732-0.733-1.919-0.733-2.652,0c-0.733,0.733-0.733,1.922,0,2.655L12.344,15.01L0.55,26.815
	c-0.733,0.733-0.733,1.922,0,2.655c0.366,0.367,0.847,0.55,1.326,0.55s0.959-0.183,1.326-0.55l11.794-11.805L26.79,29.469
	c0.366,0.367,0.846,0.55,1.326,0.55s0.96-0.183,1.326-0.55c0.733-0.733,0.733-1.922,0-2.655L17.648,15.01z"/>
</svg>
