<?xml version="1.0" encoding="iso-8859-1"?>
<!-- Generator: Adobe Illustrator 16.2.0, SVG Export Plug-In . SVG Version: 6.00 Build 0)  -->
<!DOCTYPE svg PUBLIC "-//W3C//DTD SVG 1.1//EN" "http://www.w3.org/Graphics/SVG/1.1/DTD/svg11.dtd">
<svg version="1.1" id="&#x421;&#x43B;&#x43E;&#x439;_1"
	 xmlns="http://www.w3.org/2000/svg" xmlns:xlink="http://www.w3.org/1999/xlink" x="0px" y="0px" width="180.008px"
	 height="37.004px" viewBox="0 0 180.008 37.004" style="enable-background:new 0 0 180.008 37.004;" xml:space="preserve">
<path d="M6.262,19.595c0,1.441,0.06,2.479,0.513,2.968c0.361,0.403,0.844,0.634,3.258,0.634
	c3.349,0,3.832-0.144,5.22-3.112c0.302-0.145,0.785-0.058,0.935,0.173c-0.241,1.21-0.905,3.4-1.267,4.178
	c-1.267-0.058-3.862-0.087-7.241-0.087H4.542c-1.539,0-3.047,0.029-4.314,0.087c-0.242-0.115-0.332-0.692-0.061-0.836l0.905-0.144
	c1.418-0.173,1.69-0.259,1.69-3.256V9.481c0-2.997-0.271-3.083-1.69-3.285L0.227,6.081C0.016,5.937,0.016,5.36,0.287,5.245
	c1.509,0.058,2.867,0.087,4.254,0.087c1.328,0,2.685-0.029,4.013-0.087C8.826,5.36,8.856,5.937,8.615,6.081L7.951,6.196
	C6.533,6.398,6.262,6.484,6.262,9.481V19.595z"/>
<path d="M18.117,7.147c0,2.19-2.051,3.803-4.133,4.293c-0.242-0.173-0.302-0.519-0.211-0.75
	c1.297-0.518,2.444-1.354,2.444-2.622c0-0.951-0.905-1.412-1.629-1.499c-0.453-0.058-0.935-0.403-0.935-1.037
	c0-0.49,0.362-1.354,1.72-1.354C16.85,4.179,18.117,5.563,18.117,7.147z"/>
<path d="M21.354,12.714C21.354,5.511,27.012,0,34.782,0C43.495,0,47.87,6.015,47.87,12.354
	c0,7.276-5.808,12.571-13.088,12.571C26.408,24.926,21.354,19.199,21.354,12.714z M44.098,13.472c0-5.944-2.753-12.355-9.958-12.355
	c-3.923,0-9.014,2.558-9.014,10.446c0,5.331,2.715,12.247,10.146,12.247C39.798,23.809,44.098,20.567,44.098,13.472z"/>
<path d="M69.483,10.173c-0.211,0.23-0.754,0.259-0.965,0.057c-0.513-1.815-1.871-4.207-5.853-4.207
	c-3.833,0-7.695,2.594-7.695,8.501c0,6.137,4.014,9.134,7.906,9.134c3.801,0,5.461-2.42,6.306-4.293
	c0.271-0.26,0.754-0.145,0.905,0.115c-0.211,1.93-1.026,3.832-1.449,4.379c-0.362,0.058-0.724,0.173-1.056,0.26
	c-0.664,0.202-2.745,0.691-4.706,0.691c-2.988,0-5.553-0.576-7.725-1.93c-2.444-1.528-4.285-4.149-4.285-7.924
	c0-3.371,1.569-5.993,3.801-7.636c2.233-1.614,5.281-2.449,8.328-2.449c1.72,0,3.802,0.288,5.22,0.634
	c0.362,0.086,0.573,0.115,0.844,0.172C69.121,6.34,69.182,8.04,69.483,10.173z"/>
<path d="M90.417,10.173c-0.211,0.23-0.754,0.259-0.965,0.057c-0.513-1.815-1.871-4.207-5.854-4.207
	c-3.832,0-7.694,2.594-7.694,8.501c0,6.137,4.013,9.134,7.905,9.134c3.801,0,5.461-2.42,6.306-4.293
	c0.271-0.26,0.754-0.145,0.905,0.115c-0.211,1.93-1.026,3.832-1.448,4.379c-0.362,0.058-0.725,0.173-1.056,0.26
	c-0.664,0.202-2.746,0.691-4.707,0.691c-2.987,0-5.552-0.576-7.725-1.93c-2.444-1.528-4.284-4.149-4.284-7.924
	c0-3.371,1.569-5.993,3.802-7.636c2.233-1.614,5.28-2.449,8.328-2.449c1.72,0,3.802,0.288,5.22,0.634
	c0.362,0.086,0.574,0.115,0.845,0.172C90.056,6.34,90.116,8.04,90.417,10.173z"/>
<path d="M98.559,20.2c0,3.055,0.272,3.141,1.69,3.314l0.664,0.086c0.211,0.202,0.181,0.721-0.061,0.836
	c-1.328-0.058-2.685-0.087-4.013-0.087c-1.328,0-2.746,0.029-4.073,0.087c-0.241-0.115-0.271-0.634-0.061-0.836l0.664-0.086
	c1.417-0.173,1.689-0.259,1.689-3.314V9.481c0-3.054-0.272-3.141-1.689-3.313l-0.664-0.086c-0.211-0.202-0.181-0.721,0.061-0.836
	c1.328,0.058,2.685,0.087,4.073,0.087c1.328,0,2.685-0.029,4.013-0.087c0.242,0.115,0.272,0.634,0.061,0.836l-0.664,0.086
	c-1.418,0.173-1.69,0.259-1.69,3.313V20.2z"/>
<path d="M110.771,7.752c0-1.21-0.03-1.268-0.815-1.268h-1.689c-2.776,0-3.591,0.317-4.708,2.651
	c-0.211,0.173-0.845,0.086-0.966-0.202c0.513-1.556,0.966-3.342,1.177-4.351c0.061-0.086,0.181-0.115,0.332-0.115
	c0.12,0,0.241,0.029,0.301,0.115c0.151,0.721,0.573,0.75,2.625,0.75h12.311c1.478,0,1.931-0.087,2.293-0.75
	c0.121-0.058,0.241-0.115,0.362-0.115c0.181,0,0.332,0.058,0.392,0.144c-0.301,1.181-0.543,3.66-0.453,4.582
	c-0.151,0.23-0.664,0.288-0.935,0.086c-0.393-2.248-0.966-2.795-4.194-2.795h-1.72c-0.785,0-0.814,0.058-0.814,1.268V20.2
	c0,3.055,0.271,3.141,1.689,3.285l1.086,0.115c0.211,0.202,0.181,0.721-0.06,0.836c-1.75-0.058-3.108-0.087-4.436-0.087
	s-2.746,0.029-4.677,0.087c-0.241-0.115-0.271-0.692-0.06-0.836l1.268-0.144c1.418-0.115,1.689-0.202,1.689-3.256V7.752z"/>
<path d="M126.31,17.29c-0.784,0-0.754,0-1.025,0.778l-1.237,3.458c-0.604,1.7-0.483,1.787,0.634,1.931
	l0.875,0.144c0.211,0.202,0.182,0.721-0.06,0.836c-0.966-0.058-1.961-0.058-3.198-0.087c-0.996,0-1.931,0.029-2.987,0.087
	c-0.211-0.145-0.241-0.577-0.03-0.836l0.905-0.144c0.875-0.115,1.207-0.375,1.66-1.326c0.362-0.749,0.845-1.959,1.479-3.515
	l4.133-10.258c0.393-0.922,0.665-1.614,0.573-2.104c1.056-0.202,2.052-1.383,2.112-1.383c0.241,0,0.393,0.087,0.513,0.23
	c0.483,1.297,0.875,2.651,1.357,3.948l4.345,12.073c0.694,1.931,0.845,2.132,2.383,2.392l0.453,0.086
	c0.241,0.202,0.241,0.691,0.03,0.836c-1.237-0.058-2.353-0.087-3.922-0.087c-1.297,0-2.625,0.058-3.681,0.087
	c-0.242-0.145-0.271-0.663-0.091-0.836l0.665-0.086c1.086-0.115,1.177-0.288,0.784-1.527l-1.418-3.919
	c-0.302-0.778-0.393-0.778-1.237-0.778H126.31z M129.931,15.993c0.845,0,0.965-0.058,0.724-0.749l-1.268-3.458
	c-0.513-1.527-0.694-2.075-0.845-2.276h-0.06c-0.121,0.202-0.362,0.922-0.905,2.276l-1.268,3.371
	c-0.332,0.836-0.241,0.836,0.483,0.836H129.931z"/>
<path d="M159.136,19.451c0,0.865,0,4.409,0.09,5.071c-0.241,0.317-0.664,0.433-1.025,0.404
	c-0.483-0.605-1.358-1.585-3.53-3.948l-7.061-7.693c-1.961-2.104-2.927-3.199-3.439-3.631c-0.09,0-0.09,0.317-0.09,1.844v5.619
	c0,2.161,0.03,4.812,0.543,5.676c0.271,0.432,0.784,0.605,1.539,0.72l0.664,0.086c0.271,0.202,0.241,0.749-0.061,0.836
	c-1.116-0.058-2.293-0.087-3.44-0.087c-1.267,0-2.082,0.029-3.138,0.087c-0.241-0.145-0.302-0.634-0.06-0.836l0.664-0.144
	c0.574-0.086,1.117-0.202,1.327-0.663c0.393-0.893,0.393-3.4,0.393-5.676v-6.829c0-2.248,0.03-2.709-0.996-3.544
	c-0.332-0.259-1.177-0.49-1.599-0.576l-0.453-0.086c-0.211-0.173-0.181-0.749,0.121-0.836c1.146,0.115,2.806,0.087,3.56,0.087
	c0.634,0,1.358-0.029,2.082-0.087c0.513,1.239,3.802,4.87,4.858,5.965l3.018,3.112c1.268,1.326,4.073,4.38,4.375,4.553
	c0.091-0.086,0.091-0.23,0.091-0.691v-5.619c0-2.161-0.031-4.812-0.573-5.677c-0.272-0.432-0.754-0.605-1.509-0.72l-0.694-0.086
	c-0.271-0.202-0.241-0.749,0.061-0.836c1.177,0.058,2.293,0.087,3.47,0.087c1.297,0,2.082-0.029,3.168-0.087
	c0.241,0.145,0.301,0.634,0.06,0.836l-0.694,0.144c-0.573,0.086-1.086,0.202-1.297,0.663c-0.422,0.893-0.422,3.4-0.422,5.677V19.451
	z"/>
<path d="M166.068,9.481c0-3.054-0.271-3.141-1.69-3.342l-0.482-0.058c-0.21-0.202-0.181-0.721,0.061-0.836
	c1.146,0.058,2.564,0.087,3.892,0.087h5.763c1.931,0,3.681-0.029,4.073-0.087c0.121,0.49,0.302,2.767,0.483,4.005
	c-0.12,0.23-0.724,0.288-0.965,0.115c-0.483-1.671-0.935-2.392-1.901-2.622c-0.693-0.202-1.599-0.259-2.414-0.259h-2.021
	c-1.297,0-1.297,0.058-1.297,1.7v4.87c0,0.749,0.03,0.778,0.724,0.778h1.449c2.625,0,3.138-0.029,3.349-1.268l0.21-0.98
	c0.242-0.202,0.815-0.202,0.966,0.029c-0.03,0.778-0.091,1.815-0.091,2.881c0,1.095,0.061,2.104,0.091,3.026
	c-0.151,0.201-0.725,0.201-0.966,0.029l-0.21-1.153c-0.211-1.21-0.725-1.268-3.349-1.268h-1.449c-0.694,0-0.724,0.057-0.724,0.778
	v3.659c0,1.47,0.06,2.507,0.513,2.997c0.362,0.403,0.874,0.634,3.409,0.634c3.832,0.058,4.495-0.778,5.552-3.112
	c0.271-0.202,0.784-0.115,0.965,0.173c-0.181,1.21-0.845,3.4-1.267,4.178c-1.328-0.058-3.923-0.087-7.453-0.087h-3.439
	c-1.328,0-3.168,0.029-4.526,0.087c-0.242-0.115-0.271-0.634-0.061-0.836l1.116-0.115c1.418-0.144,1.69-0.23,1.69-3.285V9.481z"/>
<path d="M34.155,31.443c0-1.099-0.098-1.13-0.608-1.203l-0.174-0.021c-0.076-0.072-0.064-0.259,0.022-0.301
	c0.413,0.021,0.923,0.031,1.401,0.031h2.074c0.695,0,1.326-0.01,1.467-0.031c0.043,0.176,0.108,0.996,0.174,1.441
	c-0.043,0.083-0.261,0.104-0.348,0.042c-0.174-0.602-0.337-0.861-0.684-0.944c-0.25-0.072-0.576-0.093-0.869-0.093h-0.728
	c-0.467,0-0.467,0.021-0.467,0.612v1.752c0,0.27,0.011,0.28,0.261,0.28h0.521c0.944,0,1.129-0.01,1.206-0.456l0.076-0.353
	c0.086-0.073,0.293-0.073,0.347,0.01c-0.011,0.28-0.032,0.654-0.032,1.037c0,0.395,0.021,0.757,0.032,1.09
	c-0.054,0.072-0.261,0.072-0.347,0.01l-0.076-0.415c-0.076-0.436-0.261-0.457-1.206-0.457h-0.521c-0.25,0-0.261,0.021-0.261,0.28
	v1.318c0,0.529,0.022,0.902,0.185,1.079c0.131,0.146,0.315,0.228,1.228,0.228c1.379,0.021,1.618-0.28,1.999-1.12
	c0.098-0.073,0.283-0.042,0.348,0.062c-0.065,0.435-0.304,1.224-0.456,1.504c-0.478-0.021-1.412-0.031-2.683-0.031h-1.238
	c-0.478,0-1.141,0.011-1.629,0.031c-0.087-0.042-0.098-0.228-0.022-0.301l0.402-0.042c0.511-0.052,0.608-0.083,0.608-1.182V31.443z"
	/>
<path d="M50.315,35.032c0,0.312,0,1.587,0.033,1.825c-0.086,0.115-0.239,0.156-0.369,0.146
	c-0.174-0.218-0.489-0.571-1.271-1.421l-2.542-2.77c-0.707-0.757-1.054-1.151-1.239-1.307c-0.032,0-0.032,0.114-0.032,0.664v2.023
	c0,0.778,0.011,1.732,0.195,2.043c0.098,0.155,0.282,0.218,0.554,0.26l0.239,0.031c0.098,0.073,0.087,0.27-0.022,0.301
	c-0.402-0.021-0.826-0.031-1.238-0.031c-0.456,0-0.75,0.011-1.13,0.031c-0.087-0.052-0.108-0.228-0.022-0.301l0.239-0.052
	c0.206-0.031,0.402-0.072,0.478-0.238c0.141-0.322,0.141-1.224,0.141-2.043v-2.458c0-0.809,0.011-0.975-0.358-1.276
	c-0.12-0.093-0.424-0.176-0.576-0.208l-0.163-0.031c-0.076-0.062-0.065-0.27,0.043-0.301c0.413,0.042,1.01,0.031,1.282,0.031
	c0.228,0,0.489-0.01,0.75-0.031c0.185,0.446,1.369,1.753,1.749,2.147l1.086,1.12c0.456,0.478,1.467,1.577,1.576,1.639
	c0.032-0.031,0.032-0.083,0.032-0.249v-2.023c0-0.778-0.011-1.732-0.206-2.044c-0.098-0.155-0.272-0.218-0.544-0.259l-0.25-0.031
	c-0.098-0.072-0.087-0.27,0.021-0.301c0.424,0.021,0.826,0.031,1.25,0.031c0.467,0,0.749-0.01,1.14-0.031
	c0.088,0.052,0.109,0.229,0.022,0.301l-0.25,0.052c-0.207,0.031-0.391,0.073-0.467,0.238c-0.152,0.322-0.152,1.225-0.152,2.044
	V35.032z"/>
<path d="M63.356,31.505c0-0.944-0.011-1.099-0.467-1.161l-0.38-0.042c-0.077-0.072-0.077-0.249,0.011-0.291
	c0.76-0.083,1.411-0.093,2.4-0.093c1.032,0,1.781,0.146,2.27,0.415c0.564,0.321,0.923,0.871,0.923,1.556
	c0,1.576-1.575,2.012-2.433,2.012c-0.098,0-0.185,0-0.271-0.01c-0.076-0.062-0.087-0.197-0.032-0.26
	c0.988-0.186,1.347-0.871,1.347-1.722c0-0.84-0.565-1.577-1.554-1.577c-0.542,0-0.554,0.031-0.554,0.436v4.533
	c0,1.099,0.098,1.13,0.608,1.182l0.402,0.042c0.065,0.073,0.054,0.259-0.022,0.301c-0.64-0.021-1.129-0.031-1.607-0.031
	c-0.478,0-0.967,0.011-1.401,0.031c-0.087-0.042-0.098-0.228-0.022-0.301l0.174-0.021c0.511-0.073,0.608-0.104,0.608-1.203V31.505z"
	/>
<path d="M73.63,31.505c0-0.996-0.011-1.12-0.521-1.172l-0.282-0.031c-0.076-0.072-0.076-0.238,0.011-0.291
	c0.684-0.062,1.607-0.093,2.498-0.093c0.848,0,1.586,0.104,2.064,0.353c0.554,0.28,0.956,0.768,0.956,1.515
	c0,0.955-0.771,1.432-1.303,1.639c-0.066,0.031-0.043,0.114,0,0.176c0.869,1.4,1.412,2.282,1.922,2.687
	c0.305,0.249,0.62,0.311,0.75,0.321c0.054,0.042,0.054,0.156,0.022,0.207c-0.131,0.032-0.337,0.063-0.717,0.063
	c-1.043,0-1.608-0.405-2.271-1.369c-0.292-0.436-0.597-1.007-0.858-1.411c-0.196-0.312-0.315-0.353-0.673-0.353
	c-0.326,0-0.337,0.01-0.337,0.228v1.329c0,1.099,0.098,1.13,0.608,1.193l0.239,0.031c0.076,0.073,0.065,0.259-0.022,0.301
	c-0.478-0.021-0.967-0.031-1.444-0.031c-0.479,0-0.967,0.011-1.467,0.031c-0.087-0.042-0.119-0.228-0.021-0.301l0.239-0.031
	c0.51-0.063,0.608-0.094,0.608-1.193V31.505z M74.89,32.999c0,0.332,0,0.353,0.521,0.353c1.064,0,1.554-0.498,1.554-1.483
	c0-0.819-0.554-1.535-1.5-1.535c-0.564,0-0.576,0.031-0.576,0.508V32.999z"/>
<path d="M91.105,33.393c0,2.043-1.629,3.568-3.824,3.568c-2.455,0-3.867-1.649-3.867-3.496
	c0-2.116,1.607-3.683,3.889-3.683C89.813,29.783,91.105,31.505,91.105,33.393z M84.893,33.165c0,1.432,0.641,3.382,2.498,3.382
	c1.238,0,2.238-0.882,2.238-2.967c0-1.566-0.739-3.381-2.466-3.381C86.077,30.198,84.893,30.956,84.893,33.165z"/>
<path d="M100.067,34.223c-0.435,0.944-0.945,2.157-1.13,2.686c-0.021,0.032-0.108,0.052-0.184,0.052
	s-0.153-0.021-0.207-0.052c-0.13-0.414-0.304-0.922-0.499-1.358l-1.901-4.367c-0.304-0.695-0.402-0.84-0.836-0.923l-0.261-0.052
	c-0.076-0.073-0.076-0.259,0.033-0.291c0.423,0.021,0.89,0.031,1.314,0.031c0.489,0,0.858-0.01,1.434-0.031
	c0.098,0.063,0.109,0.229,0.011,0.301l-0.272,0.063c-0.239,0.052-0.326,0.104-0.326,0.187c0,0.093,0.087,0.322,0.533,1.379
	l0.782,1.847c0.196,0.467,0.489,1.079,0.597,1.317c0.587-1.307,1.238-2.738,1.814-4.149c0.174-0.415,0.142-0.498-0.184-0.571
	l-0.316-0.072c-0.076-0.083-0.064-0.249,0.022-0.301c0.445,0.021,0.815,0.031,1.162,0.031c0.391,0,0.75-0.01,1.054-0.031
	c0.087,0.052,0.076,0.218,0.021,0.301l-0.271,0.052c-0.25,0.052-0.49,0.125-0.674,0.425c-0.304,0.499-0.619,1.193-1.108,2.241
	L100.067,34.223z"/>
<path d="M107.43,31.443c0-1.099-0.098-1.13-0.608-1.203l-0.173-0.021c-0.077-0.072-0.065-0.259,0.021-0.301
	c0.413,0.021,0.923,0.031,1.401,0.031h2.074c0.696,0,1.326-0.01,1.467-0.031c0.043,0.176,0.109,0.996,0.174,1.441
	c-0.043,0.083-0.261,0.104-0.348,0.042c-0.173-0.602-0.337-0.861-0.685-0.944c-0.25-0.072-0.576-0.093-0.869-0.093h-0.728
	c-0.467,0-0.467,0.021-0.467,0.612v1.752c0,0.27,0.011,0.28,0.26,0.28h0.521c0.945,0,1.13-0.01,1.206-0.456l0.076-0.353
	c0.087-0.073,0.294-0.073,0.348,0.01c-0.011,0.28-0.032,0.654-0.032,1.037c0,0.395,0.021,0.757,0.032,1.09
	c-0.054,0.072-0.26,0.072-0.348,0.01l-0.076-0.415c-0.076-0.436-0.261-0.457-1.206-0.457h-0.521c-0.25,0-0.26,0.021-0.26,0.28v1.318
	c0,0.529,0.021,0.902,0.185,1.079c0.13,0.146,0.315,0.228,1.227,0.228c1.38,0.021,1.619-0.28,1.999-1.12
	c0.098-0.073,0.283-0.042,0.348,0.062c-0.065,0.435-0.305,1.224-0.457,1.504c-0.479-0.021-1.412-0.031-2.683-0.031h-1.238
	c-0.478,0-1.141,0.011-1.629,0.031c-0.087-0.042-0.098-0.228-0.022-0.301l0.402-0.042c0.511-0.052,0.608-0.083,0.608-1.182V31.443z"
	/>
<path d="M123.59,35.032c0,0.312,0,1.587,0.032,1.825c-0.086,0.115-0.238,0.156-0.369,0.146
	c-0.173-0.218-0.489-0.571-1.271-1.421l-2.542-2.77c-0.707-0.757-1.054-1.151-1.238-1.307c-0.033,0-0.033,0.114-0.033,0.664v2.023
	c0,0.778,0.011,1.732,0.195,2.043c0.098,0.155,0.283,0.218,0.554,0.26l0.239,0.031c0.098,0.073,0.087,0.27-0.022,0.301
	c-0.402-0.021-0.825-0.031-1.238-0.031c-0.456,0-0.749,0.011-1.129,0.031c-0.087-0.052-0.109-0.228-0.022-0.301l0.239-0.052
	c0.207-0.031,0.402-0.072,0.478-0.238c0.141-0.322,0.141-1.224,0.141-2.043v-2.458c0-0.809,0.011-0.975-0.358-1.276
	c-0.119-0.093-0.424-0.176-0.575-0.208l-0.164-0.031c-0.076-0.062-0.065-0.27,0.043-0.301c0.413,0.042,1.01,0.031,1.282,0.031
	c0.228,0,0.489-0.01,0.75-0.031c0.185,0.446,1.369,1.753,1.749,2.147l1.086,1.12c0.456,0.478,1.466,1.577,1.575,1.639
	c0.033-0.031,0.033-0.083,0.033-0.249v-2.023c0-0.778-0.011-1.732-0.207-2.044c-0.098-0.155-0.271-0.218-0.543-0.259l-0.25-0.031
	c-0.098-0.072-0.087-0.27,0.021-0.301c0.424,0.021,0.826,0.031,1.25,0.031c0.467,0,0.75-0.01,1.141-0.031
	c0.087,0.052,0.108,0.229,0.021,0.301l-0.25,0.052c-0.206,0.031-0.391,0.073-0.467,0.238c-0.152,0.322-0.152,1.225-0.152,2.044
	V35.032z"/>
<path d="M135.84,31.692c-0.076,0.083-0.271,0.093-0.348,0.021c-0.185-0.653-0.673-1.514-2.106-1.514
	c-1.38,0-2.771,0.934-2.771,3.06c0,2.209,1.445,3.289,2.846,3.289c1.369,0,1.966-0.872,2.27-1.546
	c0.098-0.093,0.271-0.051,0.326,0.042c-0.076,0.695-0.369,1.379-0.521,1.577c-0.13,0.021-0.261,0.063-0.38,0.094
	c-0.239,0.072-0.989,0.249-1.694,0.249c-1.076,0-1.999-0.208-2.781-0.695c-0.88-0.55-1.543-1.494-1.543-2.853
	c0-1.213,0.565-2.157,1.369-2.749c0.803-0.581,1.901-0.882,2.998-0.882c0.619,0,1.369,0.104,1.879,0.229
	c0.13,0.031,0.207,0.042,0.304,0.062C135.71,30.313,135.731,30.924,135.84,31.692z"/>
<path d="M141.399,31.443c0-1.099-0.098-1.13-0.608-1.203l-0.174-0.021c-0.076-0.072-0.065-0.259,0.022-0.301
	c0.413,0.021,0.923,0.031,1.401,0.031h2.074c0.695,0,1.326-0.01,1.467-0.031c0.043,0.176,0.109,0.996,0.174,1.441
	c-0.043,0.083-0.261,0.104-0.348,0.042c-0.173-0.602-0.337-0.861-0.684-0.944c-0.25-0.072-0.576-0.093-0.869-0.093h-0.728
	c-0.467,0-0.467,0.021-0.467,0.612v1.752c0,0.27,0.011,0.28,0.261,0.28h0.521c0.945,0,1.13-0.01,1.206-0.456l0.076-0.353
	c0.086-0.073,0.293-0.073,0.347,0.01c-0.01,0.28-0.032,0.654-0.032,1.037c0,0.395,0.022,0.757,0.032,1.09
	c-0.054,0.072-0.261,0.072-0.347,0.01l-0.076-0.415c-0.076-0.436-0.261-0.457-1.206-0.457h-0.521c-0.25,0-0.261,0.021-0.261,0.28
	v1.318c0,0.529,0.022,0.902,0.185,1.079c0.13,0.146,0.315,0.228,1.228,0.228c1.379,0.021,1.619-0.28,1.999-1.12
	c0.098-0.073,0.283-0.042,0.348,0.062c-0.065,0.435-0.305,1.224-0.457,1.504c-0.478-0.021-1.412-0.031-2.683-0.031h-1.238
	c-0.478,0-1.14,0.011-1.629,0.031c-0.086-0.042-0.098-0.228-0.021-0.301l0.402-0.042c0.51-0.052,0.608-0.083,0.608-1.182V31.443z"/>
</svg>
