<?xml version="1.0" encoding="iso-8859-1"?>
<!-- Generator: Adobe Illustrator 16.2.0, SVG Export Plug-In . SVG Version: 6.00 Build 0)  -->
<!DOCTYPE svg PUBLIC "-//W3C//DTD SVG 1.1//EN" "http://www.w3.org/Graphics/SVG/1.1/DTD/svg11.dtd">
<svg version="1.1" id="&#x421;&#x43B;&#x43E;&#x439;_1"
	 xmlns="http://www.w3.org/2000/svg" xmlns:xlink="http://www.w3.org/1999/xlink" x="0px" y="0px" width="35.001px"
	 height="29.998px" viewBox="0 0 35.001 29.998" style="enable-background:new 0 0 35.001 29.998;" xml:space="preserve">
<path d="M33.686,1.711l-0.937-0.802c-1.556-1.332-3.893-1.184-5.267,0.334L11.803,18.564l-4.732-4.061
	c-1.554-1.333-3.892-1.188-5.267,0.328l-0.829,0.914c-0.672,0.741-1.021,1.717-0.97,2.715c0.051,0.997,0.498,1.933,1.242,2.603
	l8.675,7.915c0.751,0.703,1.758,1.069,2.786,1.015c1.029-0.054,1.991-0.525,2.663-1.303L34.087,7.021
	c0.654-0.757,0.979-1.742,0.904-2.738C34.915,3.288,34.446,2.362,33.686,1.711z"/>
</svg>
